<?xml version="1.0" encoding="utf-8"?>
<!-- Generator: Adobe Illustrator 24.0.1, SVG Export Plug-In . SVG Version: 6.00 Build 0)  -->
<svg version="1.1" id="Calque_1" xmlns="http://www.w3.org/2000/svg" xmlns:xlink="http://www.w3.org/1999/xlink" x="0px" y="0px"
	 viewBox="0 0 184 40" style="enable-background:new 0 0 184 40;" xml:space="preserve">
<style type="text/css">
	.st0{display:none;fill:#FFFFFF;}
	.st1{fill:#F2BB60;}
	.st2{fill:#447745;}
	.st3{fill:#F2BB61;}
	.st4{fill:#457846;}
	.st5{fill:#151515;}
	.st6{fill:#111111;}
	.st7{fill:#141414;}
	.st8{fill:#121212;}
	.st9{fill:#161616;}
	.st10{fill:#131313;}
	.st11{fill:#F2BD64;}
	.st12{fill:#FFFEFD;}
	.st13{fill:#FFFEFC;}
	.st14{fill:#FAFAFA;}
	.st15{fill:#F8F8F8;}
	.st16{fill:#EEEEEE;}
	.st17{fill:#F4F4F4;}
</style>
<g>
	<path class="st0" d="M139.7,64.7c-30.5,0-61,0-91.5,0c0-30.5,0-61,0-91.5c30.5,0,61,0,91.5,0C139.7,3.7,139.7,34.2,139.7,64.7z
		 M107.4,17.4C107.4,17.4,107.4,17.4,107.4,17.4c0,2.4,0,4.7,0,7.1c0,0.2,0,0.3,0,0.5c0,0.6,0.3,0.9,0.9,1c0.4,0.1,0.8,0.1,1.2,0.1
		c0.7,0,1.1,0.2,1.6,0.7c0.8,0.9,1.8,1.2,2.9,1c0.8-0.1,1.4-0.5,1.9-1c0.3-0.3,0.7-0.5,1.1-0.6c0.3,0,0.7-0.1,1-0.1
		c1.8,0,3.6,0,5.4,0c0.3,0,0.6,0,0.8,0.1c0.5,0,0.9,0.2,1.2,0.6c0.1,0.1,0.3,0.3,0.4,0.4c0.9,0.6,1.9,0.7,2.9,0.5
		c0.6-0.1,1.1-0.4,1.6-0.8c0.3-0.3,0.6-0.5,1-0.6c0.5-0.2,1-0.2,1.6-0.2c1-0.1,1.2-0.3,1.2-1.3c0-2.1,0-4.3,0-6.4
		c0-0.6-0.1-1.1-0.4-1.7c-0.1-0.3-0.3-0.6-0.4-0.8c-0.3-0.6-0.6-1.3-0.9-1.9c-0.3-0.7-0.8-1-1.6-1c-0.2,0-0.4,0-0.6,0
		c-1.9,0-3.8,0-5.8,0c-0.7,0-0.9-0.3-0.9-0.9c0-0.5,0-1,0-1.5c0-1.1-0.4-1.4-1.4-1.4c-2.6,0-5.2,0-7.8,0c-0.2,0-0.5,0-0.7,0.1
		c-0.3,0.1-0.5,0.3-0.5,0.7c0,0.3,0.1,0.6,0.5,0.7c0.1,0,0.2,0.1,0.3,0.1c0.3,0,0.6,0.1,1,0.1c2,0,3.9,0,5.9,0c0.8,0,1,0.2,1,1
		c0,3.9,0,7.8,0,11.6c0,0.2,0,0.3,0,0.5c0,0.3-0.2,0.5-0.5,0.5c-0.2,0-0.3,0-0.5,0c-1,0-2,0-2.9,0c-1,0-1.1-0.1-1.5-1
		c-0.8-1.8-3.2-2.5-4.8-1.3c-0.5,0.4-0.8,0.9-1.1,1.4c-0.1,0.2-0.2,0.4-0.3,0.5c-0.2,0.3-0.6,0.3-0.9,0c-0.2-0.3-0.3-0.6-0.3-0.9
		c0-3.7,0-7.4,0-11.1c0-0.2,0-0.3,0-0.5c0-0.5,0.3-0.7,0.7-0.7c0.3-0.1,0.7-0.1,1-0.2c0.4-0.1,0.6-0.3,0.8-0.6
		c0.2-0.4,0.1-0.7-0.3-0.9c-0.2-0.1-0.4-0.1-0.6-0.1c-0.8,0-1.6,0-2.4,0c-0.1,0-0.2,0-0.4,0c-0.3,0-0.6,0.2-0.6,0.6
		c0,0.2-0.1,0.5-0.1,0.7C107.4,12.7,107.4,15.1,107.4,17.4z M73,16.2c0.1-0.4,0.1-0.9,0.2-1.3c0.1-0.4,0.4-0.7,0.8-0.7
		c0.4,0,0.8-0.1,1.3-0.2c1-0.1,2.1-0.2,3.1-0.3c0.3,0,0.6-0.1,0.9-0.2c0.2-0.1,0.4-0.2,0.5-0.5c0-0.7,0.1-1.4,0.1-2.1
		c0-0.4-0.3-0.7-0.7-0.7c-0.2,0-0.4,0-0.6,0c-2.6,0.1-5.1,0.2-7.7,0.3c-0.1,0-0.2,0-0.3,0c-0.4,0.1-0.5,0.2-0.6,0.6
		c0,0.2-0.1,0.4-0.1,0.6c-0.1,1.7-0.2,3.3-0.3,5c-0.1,2.2-0.2,4.5-0.3,6.7c0,0.4,0,0.9,0,1.3c0,0.5,0.2,0.7,0.7,0.7
		c0.1,0,0.3,0,0.4,0c1.8-0.1,3.5-0.2,5.3-0.3c0.9-0.1,1.9-0.1,2.8-0.2c0.7-0.1,0.8-0.2,0.8-0.9c0-0.6,0-1.2,0-1.8c0-0.1,0-0.3,0-0.4
		c0-0.3-0.2-0.4-0.4-0.4c-0.3,0-0.5,0-0.8,0c-1.4,0-2.7,0.1-4.1,0.1c-0.2,0-0.4,0-0.6,0c-0.3,0-0.4-0.2-0.5-0.4
		c-0.2-0.7,0.2-1.4,1-1.6c0.4-0.1,0.9-0.1,1.3-0.2c0.8-0.1,1.5-0.2,2.3-0.3c0.5-0.1,0.8-0.3,0.8-0.9c0-0.5,0-1-0.1-1.4
		c0-0.5-0.2-0.7-0.7-0.8c-0.1,0-0.3,0-0.4,0c-1,0.1-2,0.1-3,0.2C73.7,16.3,73.4,16.2,73,16.2z M96.8,16.3c0-0.4,0.1-0.8,0.1-1.2
		c0.1-0.6,0.3-0.8,0.9-0.9c1.1-0.1,2.1-0.2,3.2-0.3c0.6-0.1,1.3-0.1,1.9-0.2c0.5-0.1,0.7-0.3,0.7-0.8c0-0.6,0-1.1,0-1.7
		c0-0.1,0-0.2,0-0.3c0-0.4-0.2-0.5-0.6-0.5c-0.2,0-0.5,0-0.7,0c-2.6,0.1-5.2,0.2-7.8,0.3c-0.7,0-0.8,0.2-0.9,0.9c0,0,0,0.1,0,0.1
		c-0.1,1.1-0.1,2.2-0.2,3.4c-0.1,1.3-0.1,2.7-0.2,4c-0.1,1.9-0.2,3.7-0.3,5.6c0,0.1,0,0.1,0,0.2c0.1,0.5,0.3,0.7,0.7,0.7
		c0.2,0,0.4,0,0.7,0c2.1-0.1,4.3-0.2,6.4-0.3c0.5,0,1,0,1.4-0.1c0.6-0.1,0.8-0.2,0.8-0.8c0-0.5,0-1,0-1.5c0-0.9-0.3-1.2-1.2-1.2
		c-1.4,0-2.8,0.1-4.2,0.1c-0.1,0-0.3,0-0.4,0c-0.4-0.1-0.6-0.3-0.6-0.7c-0.1-0.6,0.4-1.3,1-1.4c0.4-0.1,0.9-0.1,1.3-0.2
		c0.8-0.1,1.5-0.2,2.3-0.3c0.5-0.1,0.8-0.3,0.8-0.9c0-0.5-0.1-1.1-0.1-1.6c-0.1-0.5-0.2-0.6-0.8-0.6c-0.6,0-1.1,0.1-1.7,0.1
		C98.5,16.2,97.7,16.2,96.8,16.3z M85.2,19.9c0,0.1,0.1,0.1,0.1,0.1c1,1.6,2.1,3.1,3.1,4.7c0.1,0.1,0.2,0.2,0.3,0.4
		c0.3,0.4,0.6,0.4,1,0.1c0.5-0.5,1.1-0.9,1.6-1.4c0.4-0.4,0.5-0.8,0.2-1.3c0-0.1-0.1-0.1-0.2-0.2c-1-1.3-1.9-2.7-2.9-4
		c-0.1-0.1-0.1-0.2-0.2-0.3c-0.2-0.3-0.2-0.6,0-0.9c0.1-0.1,0.2-0.2,0.3-0.3c0.9-1.1,1.8-2.1,2.7-3.2c0.2-0.2,0.3-0.4,0.5-0.6
		c0.3-0.5,0.3-0.8-0.1-1.3c-0.3-0.4-0.6-0.7-1-1c-0.7-0.6-0.9-0.6-1.6,0c-1,1.1-2,2.1-3.1,3.2c-0.3,0.3-0.6,0.5-1,0.8
		c0-0.2,0-0.4,0-0.6c0.1-0.8,0.1-1.7,0.2-2.5c0-0.2,0-0.5,0-0.7c0-0.3-0.2-0.4-0.4-0.5c-0.1,0-0.3-0.1-0.4-0.1c-0.6,0-1.3,0-1.9,0
		c-0.5,0-0.7,0.2-0.8,0.7c0,0.1,0,0.2,0,0.3c-0.1,2.2-0.2,4.4-0.3,6.7c-0.1,1.8-0.2,3.5-0.2,5.3c0,0.6,0,1.2,0,1.8
		c0,0.4,0.2,0.6,0.6,0.6c0.8,0,1.6,0,2.5-0.1c0.4,0,0.5-0.2,0.6-0.6c0-0.3,0-0.6,0-0.8c0-1.2,0-2.4,0-3.6
		C84.7,20.2,84.8,20,85.2,19.9z M61.3,14.7C61.3,14.7,61.3,14.7,61.3,14.7c-0.1-0.2-0.1-0.3-0.1-0.4c0.1-1,0.2-2.1,0.2-3.1
		c0-0.6-0.1-0.7-0.7-0.8c-0.1,0-0.1,0-0.2,0c-0.6,0-1.2,0-1.8,0c-0.5,0-0.7,0.2-0.8,0.7c0,0.1,0,0.2,0,0.3c-0.1,2.4-0.2,4.7-0.4,7.1
		c-0.1,2-0.2,3.9-0.3,5.9c0,0.2,0,0.4,0,0.7c0,0.5,0.2,0.6,0.6,0.7c0.4,0,0.8,0,1.1,0c0.4,0,0.9,0,1.3-0.1c0.3,0,0.5-0.2,0.5-0.5
		c0-0.2,0-0.4,0-0.7c0-1.2,0-2.5,0-3.7c0-0.1,0-0.2,0-0.3c0-0.2,0.2-0.3,0.3-0.1c0.3,0.2,0.5,0.5,0.7,0.8c0.9,1.2,1.7,2.5,2.6,3.8
		c0.1,0.2,0.2,0.3,0.4,0.5c0.2,0.2,0.5,0.2,0.7,0c0.1-0.1,0.2-0.2,0.3-0.3c0.4-0.3,0.7-0.7,1.1-1c0.1-0.1,0.2-0.2,0.3-0.2
		c0.4-0.4,0.5-0.7,0.2-1.2c0-0.1-0.1-0.1-0.1-0.2c-1-1.4-1.9-2.7-2.9-4.1c-0.1-0.1-0.2-0.2-0.2-0.3c-0.2-0.3-0.1-0.6,0-0.9
		c0.1-0.1,0.2-0.2,0.3-0.3c0.9-1.1,1.9-2.1,2.8-3.2c0.1-0.1,0.2-0.3,0.3-0.5c0.4-0.6,0.4-0.9-0.1-1.5c-0.3-0.4-0.7-0.7-1-1
		c-0.5-0.5-0.8-0.5-1.3,0c0,0-0.1,0.1-0.1,0.1c-1,1.1-2,2.1-3.1,3.2C62,14.2,61.7,14.4,61.3,14.7z M117.2,17.4
		c0,0.5,0.1,0.9,0.1,1.3c0.1,0.4,0.3,0.5,0.6,0.4c0.3-0.1,0.6-0.2,0.8-0.4c0.5-0.5,1-0.9,1.4-1.4c0.6-0.6,0.6-1,0-1.5
		c-0.6-0.5-1.1-1.1-1.7-1.6c-0.2-0.1-0.4-0.2-0.6-0.2c-0.3-0.1-0.5,0-0.6,0.3c-0.1,0.3-0.3,0.6-0.1,1c0,0.1,0,0.2,0.1,0.4
		c-0.2,0-0.3,0-0.5,0c-0.6,0-1.1,0-1.7,0c-0.4,0-0.8,0.1-1.3,0.1c-0.3,0.1-0.6,0.3-0.6,0.7c0,0.3,0.2,0.5,0.4,0.7
		c0.1,0.1,0.3,0.1,0.4,0.1c0.7,0,1.3,0.1,2,0.1C116.5,17.4,116.8,17.4,117.2,17.4z M100.8,8.6c-0.6-1-1.1-1.9-1.6-2.9
		c-0.1-0.2-0.4-0.4-0.6-0.4c-0.9,0-1.8,0.1-2.7,0.1c-0.4,0-0.6,0.3-0.3,0.7c0.6,0.7,1.2,1.5,1.8,2.2C97.8,8.8,98.4,9,99,9
		C99.6,9,100.2,8.9,100.8,8.6z M77,8.6c-0.5-0.9-1-1.8-1.6-2.8c-0.1-0.3-0.4-0.4-0.7-0.4c-0.9,0-1.8,0.1-2.7,0.2
		c-0.4,0-0.6,0.3-0.3,0.7c0.6,0.7,1.1,1.4,1.7,2.1C74.4,9.2,75.9,9.3,77,8.6z M93.2,32c0-1.1,0-2.2,0-3.3c-0.2,0-0.3,0-0.5,0
		c-0.4,0.5-0.7,1.1-1.2,1.6c-0.4-0.6-0.8-1.1-1.2-1.7c-0.2,0-0.3,0-0.5,0c0,1.1,0,2.2,0,3.3c0.2,0,0.3,0,0.5,0c0-0.8,0-1.5,0-2.3
		c0,0,0,0,0,0c0,0,0,0,0.1,0c0.3,0.4,0.5,0.7,0.8,1.1c0.2,0.3,0.4,0.3,0.6,0c0.2-0.3,0.4-0.6,0.6-0.9c0-0.1,0.1-0.1,0.2-0.2
		c0,0.8,0,1.6,0,2.3C92.9,32,93,32,93.2,32z M111.7,29.6c0.1,0.1,0.2,0.2,0.2,0.3c0.2,0.3,0.4,0.5,0.6,0.8c0.2,0.3,0.4,0.3,0.6,0
		c0.1-0.1,0.2-0.3,0.3-0.4c0.1-0.2,0.3-0.4,0.4-0.6c0,0,0.1,0,0.1,0c0,0.7,0,1.5,0,2.2c0.2,0,0.4,0,0.5,0c0-1.1,0-2.2,0-3.3
		c-0.2,0-0.3,0-0.4,0c-0.4,0.5-0.7,1.1-1.2,1.6c-0.4-0.6-0.8-1.1-1.2-1.6c-0.2,0-0.3,0-0.5,0c0,1.1,0,2.2,0,3.3c0.2,0,0.3,0,0.5,0
		C111.7,31.2,111.7,30.5,111.7,29.6z M69.4,32.1c1,0,1.7-0.7,1.7-1.8c0-1-0.7-1.7-1.7-1.7c-1,0-1.7,0.8-1.7,1.8
		C67.7,31.4,68.4,32.1,69.4,32.1z M101.6,28.7c0,1.1,0,2.2,0,3.3c0.8,0,1.7,0,2.5,0c0-0.1,0-0.3,0-0.4c-0.7,0-1.3,0-2,0
		c0-0.3,0-0.7,0-1c0.6,0,1.1,0,1.6,0c0-0.2,0-0.3,0-0.4c-0.6,0-1.1,0-1.6,0c0-0.3,0-0.7,0-1c0.6,0,1.3,0,1.9,0c0-0.2,0-0.3,0-0.4
		C103.3,28.7,102.5,28.7,101.6,28.7z M97.8,32c0.5,0,1,0,1.5,0c0.8-0.1,1.4-0.7,1.5-1.4c0.1-0.9-0.3-1.6-1.1-1.8
		c-0.6-0.2-1.3-0.1-1.9-0.1C97.8,29.8,97.8,30.9,97.8,32z M121.9,28.7c0,1.1,0,2.2,0,3.3c0.8,0,1.7,0,2.5,0c0-0.1,0-0.3,0-0.4
		c-0.7,0-1.3,0-2,0c0-0.3,0-0.6,0-1c0.6,0,1.1,0,1.6,0c0-0.2,0-0.3,0-0.4c-0.6,0-1.1,0-1.6,0c0-0.4,0-0.7,0-1c0.7,0,1.3,0,1.9,0
		c0-0.2,0-0.3,0-0.4C123.5,28.7,122.7,28.7,121.9,28.7z M76.9,31.6c0.3,0.3,0.7,0.4,1.1,0.5c0.5,0.1,0.9,0.1,1.3-0.2
		c0.3-0.2,0.5-0.5,0.5-0.9c0-0.4-0.2-0.6-0.5-0.7c-0.2-0.1-0.4-0.1-0.5-0.2c-0.3-0.1-0.5-0.1-0.8-0.2c-0.2-0.1-0.4-0.2-0.3-0.4
		c0-0.2,0.2-0.4,0.4-0.4c0.3-0.1,0.5-0.1,0.8-0.1c0.3,0,0.6,0.2,0.9,0.3c0-0.5,0-0.5-0.4-0.6c-0.4-0.1-0.9-0.2-1.3-0.1
		c-0.2,0.1-0.4,0.1-0.5,0.3c-0.5,0.4-0.4,1.1,0.2,1.4c0.2,0.1,0.5,0.2,0.7,0.2c0.2,0.1,0.4,0.1,0.6,0.2c0.2,0.1,0.3,0.2,0.3,0.4
		c0,0.2-0.1,0.3-0.3,0.4c-0.1,0-0.3,0.1-0.4,0.1c-0.5,0-0.9-0.1-1.3-0.4c0,0-0.1,0-0.1,0C77,31.4,76.9,31.5,76.9,31.6z M108.6,29.3
		c0-0.5,0-0.5-0.4-0.6c-0.2-0.1-0.5-0.1-0.7-0.1c-0.4,0-0.8,0-1.1,0.3c-0.6,0.4-0.5,1.2,0.2,1.5c0.2,0.1,0.5,0.2,0.7,0.2
		c0.2,0.1,0.4,0.1,0.6,0.2c0.2,0.1,0.3,0.2,0.3,0.4c0,0.2-0.1,0.3-0.3,0.4c-0.1,0-0.3,0.1-0.4,0.1c-0.5,0-0.9-0.1-1.3-0.4
		c0,0-0.1,0-0.1,0c-0.1,0.1-0.1,0.2-0.1,0.3c0.3,0.3,0.7,0.4,1.1,0.5c0.5,0.1,0.9,0.1,1.3-0.2c0.3-0.2,0.5-0.5,0.5-0.9
		c0-0.4-0.2-0.6-0.5-0.7c-0.2-0.1-0.4-0.1-0.5-0.2c-0.3-0.1-0.5-0.1-0.8-0.2c-0.2-0.1-0.3-0.2-0.3-0.3c0-0.2,0.1-0.4,0.3-0.4
		c0.2-0.1,0.5-0.1,0.8-0.1C107.9,29.1,108.3,29.2,108.6,29.3z M74.6,28.9c-0.8-0.6-2-0.4-2.5,0.2c-0.6,0.7-0.6,1.8,0,2.4
		c0.6,0.7,1.8,0.7,2.6,0.1c0-0.4,0-0.9,0-1.3c-0.2,0-0.3,0-0.5,0c0,0.4,0,0.7,0,1.1c-0.8,0.3-1.4,0.3-1.7-0.2
		c-0.4-0.5-0.3-1.3,0-1.7c0.4-0.5,1.1-0.5,2,0C74.6,29.3,74.6,29.1,74.6,28.9z M94.7,31.2c0.5,0,1.1,0,1.6,0
		c0.1,0.3,0.3,0.6,0.4,0.8c0.2,0,0.3,0,0.5,0c-0.5-1.1-1-2.2-1.4-3.3c-0.2,0-0.4,0-0.5,0c-0.5,1.1-1,2.2-1.4,3.3c0.2,0,0.4,0,0.5,0
		C94.4,31.7,94.5,31.5,94.7,31.2z M116,30.8c0.3,0,0.5,0,0.8,0c0.3,0,0.5-0.1,0.8-0.1c0.4-0.2,0.6-0.5,0.6-1c0-0.4-0.3-0.8-0.7-0.9
		c-0.7-0.2-1.3-0.1-2-0.1c0,1.1,0,2.2,0,3.3c0.2,0,0.3,0,0.5,0C116,31.6,116,31.2,116,30.8z M87.7,28.9c-0.7-0.5-1.8-0.5-2.4,0.2
		c-0.6,0.7-0.5,1.9,0.1,2.5c0.6,0.6,1.9,0.5,2.5-0.2c-0.1-0.1-0.1-0.2-0.2-0.3c-0.9,0.5-1.5,0.6-1.9,0.1c-0.4-0.4-0.4-1.3-0.1-1.8
		c0.4-0.5,0.9-0.6,2-0.1C87.7,29.2,87.7,29.1,87.7,28.9z M81.7,32c0-1,0-1.9,0-2.9c0.4,0,0.8,0,1.2,0c0-0.2,0-0.3,0-0.4
		c-1,0-1.9,0-2.9,0c0,0.1,0,0.3,0,0.4c0.4,0,0.8,0,1.2,0c0,1,0,1.9,0,2.9C81.4,32,81.5,32,81.7,32z M119.4,31.6c0-1,0-1.9,0-2.9
		c-0.2,0-0.3,0-0.5,0c0,1.1,0,2.2,0,3.3c0.8,0,1.6,0,2.4,0c0-0.2,0-0.3,0-0.4C120.6,31.6,120,31.6,119.4,31.6z M67.4,31.6
		c-0.6,0-1.2,0-1.8,0c0-1,0-1.9,0-2.9c-0.2,0-0.3,0-0.5,0c0,1.1,0,2.2,0,3.3c0.8,0,1.6,0,2.3,0C67.4,31.9,67.4,31.7,67.4,31.6z
		 M83.5,28.7c0,1.1,0,2.2,0,3.3c0.2,0,0.3,0,0.5,0c0-1.1,0-2.2,0-3.3C83.9,28.7,83.7,28.7,83.5,28.7z M109.6,32c0.2,0,0.3,0,0.5,0
		c0-1.1,0-2.2,0-3.3c-0.2,0-0.3,0-0.5,0C109.6,29.8,109.6,30.9,109.6,32z M76.1,32c0-1.1,0-2.2,0-3.3c-0.2,0-0.3,0-0.5,0
		c0,1.1,0,2.2,0,3.3C75.8,32,75.9,32,76.1,32z M111.1,15.4c-0.2,0.3-0.4,0.5-0.6,0.8c-0.1,0.1-0.1,0.3,0,0.4
		c0.1,0.3,0.3,0.4,0.6,0.5c0.4,0.2,0.8-0.1,0.8-0.6c0-0.2-0.1-0.3-0.2-0.5C111.5,15.9,111.3,15.7,111.1,15.4z"/>
	<path class="st1" d="M107.4,17.4c0-2.3,0-4.7,0-7c0-0.2,0-0.5,0.1-0.7c0-0.4,0.3-0.5,0.6-0.6c0.1,0,0.2,0,0.4,0c0.8,0,1.6,0,2.4,0
		c0.2,0,0.4,0,0.6,0.1c0.4,0.2,0.5,0.5,0.3,0.9c-0.2,0.3-0.5,0.5-0.8,0.6c-0.3,0.1-0.7,0.1-1,0.2c-0.4,0.1-0.7,0.3-0.7,0.7
		c0,0.2,0,0.3,0,0.5c0,3.7,0,7.4,0,11.1c0,0.3,0.1,0.6,0.3,0.9c0.2,0.4,0.6,0.4,0.9,0c0.1-0.2,0.2-0.4,0.3-0.5
		c0.3-0.5,0.6-1.1,1.1-1.4c1.6-1.2,4-0.5,4.8,1.3c0.4,0.9,0.5,1,1.5,1c1,0,2,0,2.9,0c0.2,0,0.3,0,0.5,0c0.3,0,0.5-0.2,0.5-0.5
		c0-0.2,0-0.3,0-0.5c0-3.9,0-7.8,0-11.6c0-0.8-0.2-1-1-1c-2,0-3.9,0-5.9,0c-0.3,0-0.6,0-1-0.1c-0.1,0-0.2-0.1-0.3-0.1
		c-0.3-0.1-0.5-0.4-0.5-0.7c0-0.3,0.2-0.6,0.5-0.7c0.2-0.1,0.5-0.1,0.7-0.1c2.6,0,5.2,0,7.8,0c1,0,1.4,0.3,1.4,1.4c0,0.5,0,1,0,1.5
		c0,0.7,0.2,0.9,0.9,0.9c1.9,0,3.8,0,5.8,0c0.2,0,0.4,0,0.6,0c0.8,0,1.3,0.3,1.6,1c0.3,0.6,0.6,1.3,0.9,1.9c0.1,0.3,0.3,0.5,0.4,0.8
		c0.2,0.5,0.4,1.1,0.4,1.7c0,2.1,0,4.3,0,6.4c0,1-0.2,1.2-1.2,1.3c-0.5,0.1-1,0-1.6,0.2c-0.4,0.1-0.7,0.3-1,0.6
		c-0.4,0.5-1,0.7-1.6,0.8c-1,0.2-2,0.1-2.9-0.5c-0.2-0.1-0.3-0.2-0.4-0.4c-0.3-0.4-0.7-0.6-1.2-0.6c-0.3,0-0.6-0.1-0.8-0.1
		c-1.8,0-3.6,0-5.4,0c-0.3,0-0.7,0-1,0.1c-0.4,0.1-0.8,0.3-1.1,0.6c-0.5,0.5-1.2,0.9-1.9,1c-1.2,0.2-2.2-0.1-2.9-1
		c-0.4-0.5-0.9-0.7-1.6-0.7c-0.4,0-0.8,0-1.2-0.1c-0.6-0.1-0.9-0.4-0.9-1c0-0.2,0-0.3,0-0.5C107.4,22.1,107.4,19.8,107.4,17.4
		C107.4,17.4,107.4,17.4,107.4,17.4z M132,24.3c0.2-0.3,0.5-0.6,0.5-1c0-1.1,0-2.2,0-3.2c0-0.4-0.2-0.6-0.6-0.7c-0.1,0-0.1,0-0.2,0
		c-1.6,0-3.1,0-4.7-0.1c-0.1,0-0.1,0-0.2,0c-0.6,0-1-0.3-1-1c0-0.1,0-0.2,0-0.3c0-0.9,0-1.8,0-2.7c0-0.5-0.1-0.6-0.6-0.7
		c-0.3,0-0.6,0-0.9,0c-0.5,0.1-0.7,0.2-0.6,0.7c0,2.6,0,5.2,0,7.9c0,0.4,0.2,0.8,0.5,1.1c0.6-0.3,0.7-0.4,1-1c0.4-0.8,1-1.5,2-1.7
		c1.5-0.4,3.1,0.2,3.8,1.7C131.1,23.7,131.5,24,132,24.3z M129.8,17.6C129.8,17.6,129.8,17.6,129.8,17.6c0.6,0,1.1,0,1.7,0
		c0.1,0,0.3,0,0.4-0.1c0.2-0.1,0.3-0.2,0.2-0.4c0-0.1,0-0.1-0.1-0.2c-0.2-0.5-0.5-1-0.7-1.5c-0.2-0.4-0.5-0.7-1-0.8
		c-0.7-0.1-1.4-0.1-2.1,0c-0.4,0-0.7,0.4-0.7,0.8c0,0.5,0,1,0,1.5c0,0.5,0.2,0.7,0.7,0.7C128.7,17.6,129.2,17.6,129.8,17.6z
		 M126.5,24.7c0,0.9,0.5,1.5,1.5,1.5c0.9,0,1.6-0.5,1.6-1.6c0-0.9-0.6-1.5-1.5-1.5C127,23.1,126.5,23.7,126.5,24.7z M113.5,26.1
		c0.9,0.1,1.6-0.6,1.6-1.5c0-0.9-0.7-1.5-1.6-1.5c-0.9,0-1.5,0.6-1.5,1.5C112,25.6,112.5,26.1,113.5,26.1z"/>
	<path class="st2" d="M73,16.2c0.4,0,0.7,0,1,0c1-0.1,2-0.1,3-0.2c0.1,0,0.3,0,0.4,0c0.5,0.1,0.7,0.3,0.7,0.8c0,0.5,0.1,1,0.1,1.4
		c0,0.5-0.2,0.8-0.8,0.9c-0.8,0.1-1.5,0.2-2.3,0.3c-0.4,0.1-0.9,0.1-1.3,0.2c-0.7,0.1-1.2,0.9-1,1.6c0.1,0.2,0.2,0.4,0.5,0.4
		c0.2,0,0.4,0,0.6,0c1.4,0,2.7-0.1,4.1-0.1c0.3,0,0.5,0,0.8,0c0.2,0,0.4,0.2,0.4,0.4c0,0.1,0,0.3,0,0.4c0,0.6,0,1.2,0,1.8
		c0,0.7-0.1,0.8-0.8,0.9c-0.9,0.1-1.9,0.1-2.8,0.2c-1.8,0.1-3.5,0.2-5.3,0.3c-0.1,0-0.3,0-0.4,0c-0.5,0-0.7-0.2-0.7-0.7
		c0-0.4,0-0.9,0-1.3c0.1-2.2,0.2-4.5,0.3-6.7c0.1-1.7,0.2-3.3,0.3-5c0-0.2,0-0.4,0.1-0.6c0.1-0.4,0.2-0.5,0.6-0.6c0.1,0,0.2,0,0.3,0
		c2.6-0.1,5.1-0.2,7.7-0.3c0.2,0,0.4,0,0.6,0c0.5,0,0.7,0.3,0.7,0.7c0,0.7,0,1.4-0.1,2.1c0,0.3-0.2,0.4-0.5,0.5
		c-0.3,0.1-0.6,0.1-0.9,0.2c-1,0.1-2.1,0.2-3.1,0.3c-0.4,0-0.8,0.1-1.3,0.2c-0.4,0-0.7,0.3-0.8,0.7C73.1,15.4,73.1,15.8,73,16.2z"/>
	<path class="st2" d="M96.8,16.3c0.9-0.1,1.8-0.1,2.6-0.1c0.6,0,1.1-0.1,1.7-0.1c0.5,0,0.7,0.1,0.8,0.6c0.1,0.5,0.1,1.1,0.1,1.6
		c0,0.5-0.3,0.8-0.8,0.9c-0.8,0.1-1.5,0.2-2.3,0.3c-0.4,0.1-0.9,0.1-1.3,0.2c-0.7,0.1-1.1,0.7-1,1.4c0,0.4,0.2,0.6,0.6,0.7
		c0.1,0,0.3,0,0.4,0c1.4,0,2.8-0.1,4.2-0.1c0.9,0,1.2,0.2,1.2,1.2c0,0.5,0,1,0,1.5c0,0.6-0.2,0.8-0.8,0.8c-0.5,0-1,0.1-1.4,0.1
		c-2.1,0.1-4.3,0.2-6.4,0.3c-0.2,0-0.4,0-0.7,0c-0.5,0-0.7-0.2-0.7-0.7c0-0.1,0-0.1,0-0.2c0.1-1.9,0.2-3.7,0.3-5.6
		c0.1-1.3,0.1-2.7,0.2-4c0.1-1.1,0.1-2.2,0.2-3.4c0,0,0-0.1,0-0.1c0.1-0.7,0.2-0.8,0.9-0.9c2.6-0.1,5.2-0.2,7.8-0.3
		c0.2,0,0.5,0,0.7,0c0.4,0,0.5,0.1,0.6,0.5c0,0.1,0,0.2,0,0.3c0,0.6,0,1.1,0,1.7c0,0.5-0.1,0.7-0.7,0.8c-0.6,0.1-1.2,0.2-1.9,0.2
		c-1.1,0.1-2.1,0.2-3.2,0.3c-0.6,0.1-0.8,0.3-0.9,0.9C96.8,15.5,96.8,15.8,96.8,16.3z"/>
	<path class="st2" d="M85.2,19.9c-0.3,0.1-0.4,0.3-0.4,0.6c0,1.2,0,2.4,0,3.6c0,0.3,0,0.6,0,0.8c0,0.4-0.2,0.5-0.6,0.6
		c-0.8,0-1.6,0.1-2.5,0.1c-0.4,0-0.6-0.2-0.6-0.6c0-0.6,0-1.2,0-1.8c0.1-1.8,0.2-3.5,0.2-5.3c0.1-2.2,0.2-4.4,0.3-6.7
		c0-0.1,0-0.2,0-0.3c0.1-0.5,0.3-0.7,0.8-0.7c0.6,0,1.3,0,1.9,0c0.1,0,0.3,0,0.4,0.1c0.3,0,0.4,0.2,0.4,0.5c0,0.2,0,0.5,0,0.7
		c-0.1,0.8-0.1,1.7-0.2,2.5c0,0.2,0,0.4,0,0.6c0.4-0.2,0.7-0.5,1-0.8c1-1.1,2-2.1,3.1-3.2c0.6-0.7,0.9-0.7,1.6,0
		c0.3,0.3,0.7,0.7,1,1c0.4,0.5,0.4,0.8,0.1,1.3c-0.1,0.2-0.3,0.4-0.5,0.6c-0.9,1.1-1.8,2.1-2.7,3.2c-0.1,0.1-0.2,0.2-0.3,0.3
		c-0.2,0.3-0.2,0.6,0,0.9c0,0.1,0.1,0.2,0.2,0.3c1,1.3,1.9,2.7,2.9,4c0.1,0.1,0.1,0.1,0.2,0.2c0.3,0.5,0.3,0.9-0.2,1.3
		c-0.5,0.5-1.1,0.9-1.6,1.4c-0.4,0.3-0.7,0.3-1-0.1c-0.1-0.1-0.2-0.2-0.3-0.4c-1-1.6-2.1-3.1-3.1-4.7C85.3,20,85.2,20,85.2,19.9z"/>
	<path class="st2" d="M61.3,14.7c0.3-0.3,0.7-0.5,1-0.8c1-1,2-2.1,3.1-3.2c0,0,0.1-0.1,0.1-0.1c0.5-0.5,0.8-0.5,1.3,0
		c0.3,0.3,0.7,0.7,1,1c0.5,0.5,0.5,0.9,0.1,1.5c-0.1,0.2-0.2,0.3-0.3,0.5c-0.9,1.1-1.9,2.1-2.8,3.2c-0.1,0.1-0.2,0.2-0.3,0.3
		c-0.2,0.3-0.2,0.6,0,0.9c0.1,0.1,0.1,0.2,0.2,0.3c1,1.4,1.9,2.7,2.9,4.1c0,0.1,0.1,0.1,0.1,0.2c0.3,0.5,0.2,0.8-0.2,1.2
		c-0.1,0.1-0.2,0.2-0.3,0.2c-0.4,0.3-0.7,0.7-1.1,1c-0.1,0.1-0.2,0.2-0.3,0.3c-0.3,0.2-0.5,0.2-0.7,0c-0.1-0.1-0.3-0.3-0.4-0.5
		c-0.9-1.3-1.7-2.5-2.6-3.8c-0.2-0.3-0.5-0.5-0.7-0.8C61.2,20,61,20.1,61,20.3c0,0.1,0,0.2,0,0.3c0,1.2,0,2.5,0,3.7
		c0,0.2,0,0.4,0,0.7c0,0.3-0.2,0.5-0.5,0.5c-0.4,0-0.9,0.1-1.3,0.1c-0.4,0-0.8,0-1.1,0c-0.5,0-0.6-0.2-0.6-0.7c0-0.2,0-0.4,0-0.7
		c0.1-2,0.2-3.9,0.3-5.9c0.1-2.4,0.2-4.7,0.4-7.1c0-0.1,0-0.2,0-0.3c0.1-0.5,0.3-0.7,0.8-0.7c0.6,0,1.2,0,1.8,0c0.1,0,0.1,0,0.2,0
		c0.6,0.1,0.7,0.2,0.7,0.8c-0.1,1.1-0.1,2.1-0.2,3.1C61.3,14.4,61.3,14.5,61.3,14.7C61.3,14.7,61.3,14.7,61.3,14.7z"/>
	<path class="st3" d="M117.2,17.4c-0.3,0-0.7,0-1.1,0c-0.7,0-1.3,0-2-0.1c-0.1,0-0.3-0.1-0.4-0.1c-0.2-0.2-0.5-0.4-0.4-0.7
		c0.1-0.3,0.3-0.6,0.6-0.7c0.4-0.1,0.8-0.1,1.3-0.1c0.6,0,1.1,0,1.7,0c0.1,0,0.3,0,0.5,0c0-0.2,0-0.3-0.1-0.4c-0.1-0.4,0-0.7,0.1-1
		c0.1-0.2,0.3-0.3,0.6-0.3c0.2,0,0.4,0.1,0.6,0.2c0.6,0.5,1.2,1,1.7,1.6c0.6,0.5,0.5,0.9,0,1.5c-0.5,0.5-0.9,0.9-1.4,1.4
		c-0.2,0.2-0.5,0.4-0.8,0.4c-0.4,0.1-0.6-0.1-0.6-0.4C117.2,18.3,117.2,17.9,117.2,17.4z"/>
	<path class="st4" d="M100.8,8.6C100.2,8.9,99.6,9,99,9c-0.6,0-1.2-0.2-1.7-0.6c-0.6-0.7-1.3-1.4-1.8-2.2c-0.3-0.3-0.1-0.6,0.3-0.7
		c0.9-0.1,1.8-0.1,2.7-0.1c0.3,0,0.5,0.1,0.6,0.4C99.7,6.7,100.2,7.7,100.8,8.6z"/>
	<path class="st4" d="M77,8.6c-1.1,0.7-2.6,0.6-3.5-0.3c-0.6-0.6-1.2-1.4-1.7-2.1c-0.3-0.3-0.1-0.6,0.3-0.7c0.9-0.1,1.8-0.1,2.7-0.2
		c0.3,0,0.5,0.2,0.7,0.4C75.9,6.7,76.4,7.7,77,8.6z"/>
	<path class="st5" d="M93.2,32c-0.2,0-0.3,0-0.5,0c0-0.7,0-1.5,0-2.3c-0.1,0.1-0.2,0.1-0.2,0.2c-0.2,0.3-0.4,0.6-0.6,0.9
		c-0.2,0.3-0.4,0.3-0.6,0c-0.3-0.4-0.5-0.7-0.8-1.1c0,0,0,0-0.1,0c0,0,0,0,0,0c0,0.7,0,1.5,0,2.3c-0.2,0-0.3,0-0.5,0
		c0-1.1,0-2.2,0-3.3c0.2,0,0.3,0,0.5,0c0.4,0.5,0.8,1.1,1.2,1.7c0.5-0.5,0.8-1.1,1.2-1.6c0.1,0,0.3,0,0.5,0
		C93.2,29.8,93.2,30.9,93.2,32z"/>
	<path class="st5" d="M111.7,29.6c0,0.8,0,1.6,0,2.4c-0.2,0-0.3,0-0.5,0c0-1.1,0-2.2,0-3.3c0.2,0,0.3,0,0.5,0c0.4,0.5,0.8,1,1.2,1.6
		c0.5-0.5,0.8-1.1,1.2-1.6c0.1,0,0.3,0,0.4,0c0,1.1,0,2.2,0,3.3c-0.1,0-0.3,0-0.5,0c0-0.7,0-1.5,0-2.2c0,0-0.1,0-0.1,0
		c-0.1,0.2-0.3,0.4-0.4,0.6c-0.1,0.1-0.2,0.3-0.3,0.4c-0.2,0.3-0.4,0.3-0.6,0c-0.2-0.3-0.4-0.5-0.6-0.8
		C111.8,29.8,111.8,29.8,111.7,29.6z"/>
	<path class="st6" d="M69.4,32.1c-1,0-1.7-0.7-1.7-1.7c0-1,0.7-1.8,1.7-1.8c1,0,1.7,0.7,1.7,1.7C71.1,31.4,70.4,32.1,69.4,32.1z
		 M70.6,30.4c0-0.6-0.3-1.1-0.8-1.3c-0.4-0.1-0.8-0.1-1.2,0.3c-0.4,0.4-0.4,0.9-0.3,1.5c0.1,0.5,0.4,0.7,0.9,0.8
		C70,31.7,70.6,31.2,70.6,30.4z"/>
	<path class="st7" d="M101.6,28.7c0.8,0,1.6,0,2.4,0c0,0.1,0,0.3,0,0.4c-0.6,0-1.3,0-1.9,0c0,0.3,0,0.7,0,1c0.5,0,1.1,0,1.6,0
		c0,0.2,0,0.3,0,0.4c-0.5,0-1.1,0-1.6,0c0,0.4,0,0.7,0,1c0.7,0,1.3,0,2,0c0,0.2,0,0.3,0,0.4c-0.8,0-1.6,0-2.5,0
		C101.6,30.9,101.6,29.8,101.6,28.7z"/>
	<path class="st8" d="M97.8,32c0-1.1,0-2.2,0-3.3c0.6,0,1.3-0.1,1.9,0.1c0.8,0.2,1.2,0.9,1.1,1.8c-0.1,0.8-0.7,1.4-1.5,1.4
		C98.8,32,98.3,32,97.8,32z M98.3,29.1c0,0.9,0,1.7,0,2.5c0.3,0,0.5,0,0.8,0c0.6,0,1.1-0.4,1.1-1.1c0.1-0.7-0.3-1.2-0.9-1.3
		C99,29.1,98.7,29.1,98.3,29.1z"/>
	<path class="st5" d="M121.9,28.7c0.8,0,1.6,0,2.4,0c0,0.1,0,0.2,0,0.4c-0.7,0-1.3,0-1.9,0c0,0.3,0,0.7,0,1c0.5,0,1.1,0,1.6,0
		c0,0.2,0,0.3,0,0.4c-0.5,0-1.1,0-1.6,0c0,0.3,0,0.6,0,1c0.6,0,1.3,0,2,0c0,0.2,0,0.3,0,0.4c-0.9,0-1.7,0-2.5,0
		C121.9,30.9,121.9,29.8,121.9,28.7z"/>
	<path class="st7" d="M76.9,31.6c0.1-0.1,0.1-0.2,0.2-0.3c0.1,0,0.1,0,0.1,0c0.4,0.2,0.8,0.4,1.3,0.4c0.1,0,0.3,0,0.4-0.1
		c0.2-0.1,0.3-0.2,0.3-0.4c0-0.2-0.1-0.3-0.3-0.4c-0.2-0.1-0.4-0.1-0.6-0.2c-0.2-0.1-0.5-0.1-0.7-0.2c-0.6-0.3-0.7-1-0.2-1.4
		c0.2-0.1,0.3-0.2,0.5-0.3c0.4-0.1,0.9-0.1,1.3,0.1c0.4,0.1,0.4,0.1,0.4,0.6c-0.3-0.1-0.6-0.2-0.9-0.3c-0.3,0-0.5,0-0.8,0.1
		c-0.2,0-0.3,0.2-0.4,0.4c0,0.2,0.2,0.3,0.3,0.4c0.2,0.1,0.5,0.1,0.8,0.2c0.2,0.1,0.4,0.1,0.5,0.2c0.3,0.1,0.5,0.3,0.5,0.7
		c0,0.4-0.1,0.7-0.5,0.9c-0.4,0.3-0.9,0.2-1.3,0.2C77.5,32,77.2,31.9,76.9,31.6z"/>
	<path class="st7" d="M108.6,29.3c-0.3-0.1-0.7-0.2-1-0.3c-0.2,0-0.5,0-0.8,0.1c-0.2,0.1-0.3,0.2-0.3,0.4c0,0.2,0.1,0.3,0.3,0.3
		c0.3,0.1,0.5,0.1,0.8,0.2c0.2,0.1,0.4,0.1,0.5,0.2c0.3,0.1,0.5,0.3,0.5,0.7c0,0.4-0.1,0.7-0.5,0.9c-0.4,0.3-0.9,0.2-1.3,0.2
		c-0.4-0.1-0.7-0.2-1.1-0.5c0-0.1,0.1-0.2,0.1-0.3c0.1,0,0.1,0,0.1,0c0.4,0.2,0.8,0.4,1.3,0.4c0.1,0,0.3,0,0.4-0.1
		c0.2-0.1,0.3-0.2,0.3-0.4c0-0.2-0.1-0.3-0.3-0.4c-0.2-0.1-0.4-0.1-0.6-0.2c-0.2-0.1-0.5-0.1-0.7-0.2c-0.6-0.3-0.7-1-0.2-1.5
		c0.3-0.3,0.7-0.3,1.1-0.3c0.2,0,0.5,0.1,0.7,0.1C108.7,28.9,108.6,28.9,108.6,29.3z"/>
	<path class="st9" d="M74.6,28.9c0,0.2,0,0.3,0,0.5c-1-0.5-1.6-0.5-2,0c-0.4,0.5-0.4,1.2,0,1.7c0.4,0.5,1,0.6,1.7,0.2
		c0-0.3,0-0.7,0-1.1c0.2,0,0.3,0,0.5,0c0,0.5,0,0.9,0,1.3c-0.8,0.6-2,0.6-2.6-0.1c-0.6-0.6-0.6-1.8,0-2.4
		C72.6,28.5,73.8,28.3,74.6,28.9z"/>
	<path class="st7" d="M94.7,31.2c-0.1,0.3-0.2,0.5-0.4,0.8c-0.2,0-0.3,0-0.5,0c0.5-1.1,1-2.2,1.4-3.3c0.2,0,0.3,0,0.5,0
		c0.5,1.1,0.9,2.2,1.4,3.3c-0.2,0-0.3,0-0.5,0c-0.1-0.3-0.3-0.5-0.4-0.8C95.7,31.2,95.2,31.2,94.7,31.2z M96.1,30.7
		c-0.2-0.5-0.4-0.9-0.6-1.4c-0.2,0.5-0.4,1-0.6,1.4C95.3,30.7,95.6,30.7,96.1,30.7z"/>
	<path class="st8" d="M116,30.8c0,0.4,0,0.8,0,1.1c-0.2,0-0.4,0-0.5,0c0-1.1,0-2.2,0-3.3c0.7,0,1.3-0.1,2,0.1
		c0.4,0.1,0.7,0.4,0.7,0.9c0,0.5-0.2,0.9-0.6,1c-0.2,0.1-0.5,0.1-0.8,0.1C116.5,30.9,116.3,30.8,116,30.8z M116,30.4
		c0.4,0,0.8,0,1.2-0.1c0.3-0.1,0.5-0.3,0.5-0.6c0-0.3-0.1-0.5-0.5-0.6c-0.4-0.1-0.8,0-1.2,0C116,29.6,116,30,116,30.4z"/>
	<path class="st10" d="M87.7,28.9c0,0.1,0,0.3,0,0.4c-1.1-0.4-1.6-0.4-2,0.1c-0.4,0.5-0.3,1.3,0.1,1.8c0.4,0.5,1,0.5,1.9-0.1
		c0.1,0.1,0.1,0.2,0.2,0.3c-0.6,0.7-1.9,0.8-2.5,0.2c-0.6-0.6-0.7-1.8-0.1-2.5C85.8,28.5,87,28.4,87.7,28.9z"/>
	<path class="st8" d="M81.7,32c-0.2,0-0.4,0-0.5,0c0-1,0-1.9,0-2.9c-0.4,0-0.8,0-1.2,0c0-0.2,0-0.3,0-0.4c1,0,1.9,0,2.9,0
		c0,0.1,0,0.3,0,0.4c-0.4,0-0.8,0-1.2,0C81.7,30.1,81.7,31,81.7,32z"/>
	<path class="st6" d="M119.4,31.6c0.6,0,1.2,0,1.8,0c0,0.1,0,0.3,0,0.4c-0.8,0-1.6,0-2.4,0c0-1.1,0-2.2,0-3.3c0.2,0,0.3,0,0.5,0
		C119.4,29.6,119.4,30.6,119.4,31.6z"/>
	<path class="st6" d="M67.4,31.6c0,0.2,0,0.3,0,0.4c-0.8,0-1.6,0-2.3,0c0-1.1,0-2.2,0-3.3c0.2,0,0.3,0,0.5,0c0,1,0,1.9,0,2.9
		C66.2,31.6,66.8,31.6,67.4,31.6z"/>
	<path class="st6" d="M83.5,28.7c0.2,0,0.3,0,0.5,0c0,1.1,0,2.2,0,3.3c-0.2,0-0.3,0-0.5,0C83.5,30.9,83.5,29.8,83.5,28.7z"/>
	<path class="st6" d="M109.6,32c0-1.1,0-2.2,0-3.3c0.2,0,0.3,0,0.5,0c0,1.1,0,2.2,0,3.3C109.9,32,109.7,32,109.6,32z"/>
	<path class="st6" d="M76.1,32c-0.2,0-0.3,0-0.5,0c0-1.1,0-2.2,0-3.3c0.2,0,0.3,0,0.5,0C76.1,29.8,76.1,30.9,76.1,32z"/>
	<path class="st11" d="M111.1,15.4c0.2,0.3,0.4,0.5,0.6,0.7c0.1,0.1,0.2,0.3,0.2,0.5c0,0.5-0.4,0.7-0.8,0.6
		c-0.3-0.1-0.5-0.3-0.6-0.5c0-0.1,0-0.3,0-0.4C110.7,16,110.8,15.7,111.1,15.4z"/>
	<path class="st12" d="M132,24.3c-0.5-0.2-0.9-0.5-1.1-1c-0.7-1.5-2.3-2.1-3.8-1.7c-0.9,0.2-1.5,0.9-2,1.7c-0.3,0.6-0.4,0.7-1,1
		c-0.3-0.3-0.5-0.6-0.5-1.1c0-2.6,0-5.2,0-7.9c0-0.5,0.1-0.7,0.6-0.7c0.3,0,0.6,0,0.9,0c0.5,0.1,0.6,0.2,0.6,0.7c0,0.9,0,1.8,0,2.7
		c0,0.1,0,0.2,0,0.3c0.1,0.6,0.4,0.9,1,1c0.1,0,0.1,0,0.2,0c1.6,0,3.1,0,4.7,0.1c0.1,0,0.1,0,0.2,0c0.4,0,0.6,0.2,0.6,0.7
		c0,1.1,0,2.2,0,3.2C132.4,23.6,132.2,23.9,132,24.3z"/>
	<path class="st12" d="M129.8,17.6c-0.6,0-1.1,0-1.7,0c-0.5,0-0.7-0.2-0.7-0.7c0-0.5,0-1,0-1.5c0-0.4,0.3-0.7,0.7-0.8
		c0.7-0.1,1.4-0.1,2.1,0c0.5,0,0.8,0.4,1,0.8c0.3,0.5,0.5,1,0.7,1.5c0,0.1,0.1,0.1,0.1,0.2c0,0.2,0,0.4-0.2,0.4
		c-0.1,0-0.3,0.1-0.4,0.1C130.9,17.6,130.3,17.6,129.8,17.6C129.8,17.6,129.8,17.6,129.8,17.6z"/>
	<path class="st13" d="M126.5,24.7c0-1,0.6-1.5,1.5-1.5c0.9,0,1.5,0.6,1.5,1.5c0,1-0.6,1.5-1.6,1.6C127,26.2,126.5,25.6,126.5,24.7z
		"/>
	<path class="st13" d="M113.5,26.1c-0.9,0-1.5-0.5-1.5-1.5c0-0.9,0.6-1.5,1.5-1.5c0.9,0,1.6,0.7,1.6,1.5
		C115.1,25.5,114.3,26.2,113.5,26.1z"/>
	<path class="st14" d="M70.6,30.4c0,0.8-0.5,1.4-1.3,1.3c-0.5-0.1-0.8-0.4-0.9-0.8c-0.2-0.5-0.1-1.1,0.3-1.5
		c0.3-0.3,0.7-0.4,1.2-0.3C70.3,29.3,70.6,29.7,70.6,30.4z"/>
	<path class="st15" d="M98.3,29.1c0.4,0,0.7,0,1,0.1c0.6,0.1,0.9,0.7,0.9,1.3c-0.1,0.6-0.5,1-1.1,1.1c-0.2,0-0.5,0-0.8,0
		C98.3,30.7,98.3,30,98.3,29.1z"/>
	<path class="st16" d="M96.1,30.7c-0.4,0-0.8,0-1.2,0c0.2-0.5,0.4-0.9,0.6-1.4C95.7,29.8,95.9,30.2,96.1,30.7z"/>
	<path class="st17" d="M116,30.4c0-0.5,0-0.9,0-1.3c0.4,0,0.8-0.1,1.2,0c0.3,0.1,0.5,0.3,0.5,0.6c0,0.3-0.1,0.5-0.5,0.6
		C116.8,30.4,116.4,30.4,116,30.4z"/>
</g>
</svg>
