<svg id="Calque_1" data-name="Calque 1" xmlns="http://www.w3.org/2000/svg" viewBox="0 0 76.82 26.72"><defs><style>.cls-1{fill:#f2bb60;}.cls-2{fill:#447745;}.cls-3{fill:#f2bb61;}.cls-4{fill:#457846;}.cls-5{fill:#151515;}.cls-6{fill:#111;}.cls-7{fill:#141414;}.cls-8{fill:#121212;}.cls-9{fill:#161616;}.cls-10{fill:#131313;}.cls-11{fill:#f2bd64;}.cls-12{fill:#fffefd;}.cls-13{fill:#fffefc;}.cls-14{fill:#fafafa;}.cls-15{fill:#f8f8f8;}.cls-16{fill:#eee;}.cls-17{fill:#f4f4f4;}</style></defs><title>header-logo1</title><path class="cls-1" d="M107.65,16.16v-7a6,6,0,0,1,.06-.74.62.62,0,0,1,.62-.57,2,2,0,0,1,.35,0h2.41a1.5,1.5,0,0,1,.56.1.57.57,0,0,1,.28.9,1.23,1.23,0,0,1-.83.59l-1,.17a.8.8,0,0,0-.74.74c0,.16,0,.32,0,.48V21.85a1.65,1.65,0,0,0,.27.92.48.48,0,0,0,.86,0c.11-.17.18-.36.28-.55a3.93,3.93,0,0,1,1.12-1.44,3.2,3.2,0,0,1,4.77,1.27c.38.91.49,1,1.47,1H121a4,4,0,0,0,.49,0,.53.53,0,0,0,.53-.48,3.93,3.93,0,0,0,0-.49V10.41c0-.83-.17-1-1-1l-5.88,0c-.32,0-.64,0-1-.07a1.43,1.43,0,0,1-.34-.09.76.76,0,0,1-.45-.74.64.64,0,0,1,.48-.66,2.66,2.66,0,0,1,.69-.08h7.81c1,0,1.36.3,1.37,1.36,0,.5,0,1,0,1.49,0,.68.23.93.92.93,1.91,0,3.83,0,5.75,0H131a1.59,1.59,0,0,1,1.6,1l.94,1.88c.14.27.28.55.41.83a3.91,3.91,0,0,1,.38,1.65c0,2.14,0,4.27,0,6.41,0,1-.23,1.22-1.21,1.34a6.27,6.27,0,0,0-1.55.25,2.24,2.24,0,0,0-1,.59,2.78,2.78,0,0,1-1.55.85,3.54,3.54,0,0,1-2.93-.52,1.9,1.9,0,0,1-.41-.39,1.64,1.64,0,0,0-1.2-.64c-.28,0-.56-.05-.83-.05h-5.4a8.57,8.57,0,0,0-1,.07,1.87,1.87,0,0,0-1.1.59,3.61,3.61,0,0,1-1.94,1,3,3,0,0,1-2.93-1,1.89,1.89,0,0,0-1.57-.71,7.08,7.08,0,0,1-1.22-.07.94.94,0,0,1-.9-1c0-.16,0-.32,0-.48,0-2.35,0-4.71,0-7.07ZM132.22,23a1.79,1.79,0,0,0,.45-1c0-1.08,0-2.17,0-3.25,0-.44-.2-.63-.64-.67h-.18L127.17,18H127a.93.93,0,0,1-1-1c0-.1,0-.21,0-.31V14c0-.48-.13-.63-.6-.69a3.17,3.17,0,0,0-.87,0c-.54.06-.65.2-.65.73,0,2.62,0,5.24,0,7.86a1.5,1.5,0,0,0,.47,1.08,1.81,1.81,0,0,0,1-1,3.06,3.06,0,0,1,2-1.69A3.21,3.21,0,0,1,131.1,22,2,2,0,0,0,132.22,23ZM130,16.33h1.71a1.74,1.74,0,0,0,.39-.05.31.31,0,0,0,.23-.41,1.18,1.18,0,0,0-.07-.2c-.25-.52-.46-1.05-.75-1.54a1.29,1.29,0,0,0-1-.77,9.83,9.83,0,0,0-2.1,0,.8.8,0,0,0-.73.8c0,.51,0,1,0,1.53s.16.66.66.66S129.43,16.33,130,16.33ZM126.7,23.4a1.36,1.36,0,0,0,1.49,1.51,1.45,1.45,0,0,0,1.57-1.56,1.53,1.53,0,0,0-3.06,0Zm-13,1.47a1.49,1.49,0,0,0,1.61-1.48,1.55,1.55,0,0,0-1.59-1.52,1.42,1.42,0,0,0-1.49,1.53A1.36,1.36,0,0,0,113.69,24.87Z" transform="translate(-57.53 -4.13)"/><path class="cls-2" d="M73.22,15c.38,0,.71,0,1,0l3-.2a1.8,1.8,0,0,1,.4,0,.72.72,0,0,1,.69.76c0,.48,0,1,.06,1.45a.76.76,0,0,1-.77.88c-.75.09-1.51.17-2.26.27-.45.05-.91.09-1.35.17a1.25,1.25,0,0,0-1,1.59.6.6,0,0,0,.49.44,3.64,3.64,0,0,0,.57,0l4.08-.1c.26,0,.53,0,.79,0a.45.45,0,0,1,.43.42,2.6,2.6,0,0,1,0,.39c0,.6,0,1.2,0,1.8s-.15.84-.82.89c-.94.07-1.89.12-2.84.17l-5.31.28h-.39c-.5,0-.73-.24-.73-.74s0-.87,0-1.31c.11-2.24.22-4.47.34-6.71q.12-2.47.27-5a4.22,4.22,0,0,1,.07-.61.59.59,0,0,1,.56-.58c.11,0,.23,0,.35,0l7.67-.34a5.42,5.42,0,0,1,.57,0c.46,0,.74.26.74.71,0,.72,0,1.44-.07,2.15a.49.49,0,0,1-.45.47,6.93,6.93,0,0,1-.91.16l-3.1.29c-.42,0-.84.1-1.26.15a.85.85,0,0,0-.79.72C73.3,14.11,73.27,14.54,73.22,15Z" transform="translate(-57.53 -4.13)"/><path class="cls-2" d="M97,15l2.61-.14c.56,0,1.11-.07,1.67-.08s.69.1.76.63a12.34,12.34,0,0,1,.13,1.61c0,.52-.27.79-.81.86-.75.1-1.51.17-2.26.26-.44.06-.88.1-1.31.18a1.27,1.27,0,0,0-1,1.37.65.65,0,0,0,.62.68,3.11,3.11,0,0,0,.43,0l4.21-.12c.94,0,1.23.24,1.21,1.17l0,1.53c0,.64-.15.79-.8.85-.48,0-1,.06-1.45.09l-6.44.35c-.22,0-.44,0-.66,0a.66.66,0,0,1-.73-.7,1.62,1.62,0,0,1,0-.22l.3-5.61c.06-1.34.13-2.69.2-4,.06-1.12.12-2.25.19-3.37a.53.53,0,0,1,0-.13c.08-.68.23-.83.91-.86l7.76-.34a5.61,5.61,0,0,1,.71,0c.39,0,.51.15.55.53a1.67,1.67,0,0,1,0,.31c0,.57,0,1.14,0,1.71s-.13.72-.66.81-1.25.15-1.88.22L98,13a.86.86,0,0,0-.87.87C97.06,14.21,97,14.59,97,15Z" transform="translate(-57.53 -4.13)"/><path class="cls-2" d="M85.39,18.67a.53.53,0,0,0-.43.62c0,1.18,0,2.37,0,3.55a7.56,7.56,0,0,1,0,.83c0,.41-.16.55-.58.58-.82,0-1.64.06-2.45.06-.42,0-.58-.19-.59-.61,0-.6,0-1.2,0-1.8.08-1.75.16-3.51.25-5.26L81.92,10a2.06,2.06,0,0,1,0-.26.71.71,0,0,1,.78-.67c.64,0,1.29,0,1.93,0a2.6,2.6,0,0,1,.39,0,.48.48,0,0,1,.44.47,3.76,3.76,0,0,1,0,.75c-.06.83-.14,1.66-.21,2.49,0,.19,0,.38,0,.61a3.73,3.73,0,0,0,1-.76l3.06-3.16c.64-.67.88-.68,1.55,0,.34.33.67.66,1,1a.91.91,0,0,1,.06,1.31,5.82,5.82,0,0,1-.48.63c-.9,1.06-1.81,2.11-2.72,3.16l-.25.3a.77.77,0,0,0,0,.87c0,.09.11.17.17.26l2.9,4c0,.07.11.14.15.21a.87.87,0,0,1-.18,1.28l-1.6,1.38c-.4.34-.67.31-1-.09a3,3,0,0,1-.26-.36L85.5,18.79A.57.57,0,0,0,85.39,18.67Z" transform="translate(-57.53 -4.13)"/><path class="cls-2" d="M61.57,13.44a12.37,12.37,0,0,0,1-.79c1-1,2-2.1,3.05-3.16l.09-.09c.51-.52.82-.53,1.34,0,.35.34.7.67,1,1a1,1,0,0,1,.09,1.46,4.94,4.94,0,0,1-.35.45Q66.4,13.93,65,15.53c-.09.11-.19.22-.27.34a.79.79,0,0,0,0,.87,2.7,2.7,0,0,0,.22.33c1,1.36,1.95,2.71,2.92,4.06a1.88,1.88,0,0,1,.12.18.79.79,0,0,1-.19,1.17l-.3.24-1.13,1A3,3,0,0,1,66,24a.5.5,0,0,1-.74,0,2.51,2.51,0,0,1-.38-.48c-.86-1.25-1.7-2.52-2.57-3.77a5.58,5.58,0,0,0-.75-.79c-.18-.16-.33-.08-.35.15s0,.21,0,.31c0,1.24,0,2.49,0,3.73,0,.22,0,.44,0,.65a.53.53,0,0,1-.53.5c-.43,0-.87.06-1.31.07s-.76,0-1.14,0-.62-.18-.64-.65c0-.22,0-.44,0-.66.08-2,.17-3.91.26-5.87q.16-3.52.35-7a2,2,0,0,1,.05-.35A.7.7,0,0,1,59,9.05c.6,0,1.2,0,1.8,0H61c.57.06.74.22.71.78,0,1.06-.15,2.1-.22,3.15,0,.13,0,.26,0,.39Z" transform="translate(-57.53 -4.13)"/><path class="cls-3" d="M117.38,16.14h-1l-2-.07a.87.87,0,0,1-.41-.14.74.74,0,0,1-.44-.71.77.77,0,0,1,.62-.66,8.83,8.83,0,0,1,1.26-.14c.55,0,1.11,0,1.66,0h.46a3.7,3.7,0,0,0-.08-.39,1.27,1.27,0,0,1,.14-1,.46.46,0,0,1,.57-.29,1.43,1.43,0,0,1,.59.25c.59.5,1.17,1,1.72,1.56s.53.94,0,1.5L119,17.43a1.46,1.46,0,0,1-.85.42c-.37.06-.57-.05-.62-.42S117.42,16.62,117.38,16.14Z" transform="translate(-57.53 -4.13)"/><path class="cls-4" d="M101,7.38a5,5,0,0,1-1.72.39,2.16,2.16,0,0,1-1.68-.65C96.93,6.43,96.32,5.7,95.73,5c-.27-.34-.14-.64.3-.68.89-.08,1.78-.12,2.67-.15a.74.74,0,0,1,.64.4Z" transform="translate(-57.53 -4.13)"/><path class="cls-4" d="M77.18,7.32A2.84,2.84,0,0,1,73.71,7,19.36,19.36,0,0,1,72,5c-.27-.34-.15-.63.29-.67.89-.08,1.78-.12,2.67-.15a.75.75,0,0,1,.67.42Z" transform="translate(-57.53 -4.13)"/><path class="cls-5" d="M93.39,30.73h-.51v-2.3a1.33,1.33,0,0,0-.23.2c-.21.29-.4.58-.6.87s-.39.26-.58,0l-.77-1.06,0,0,0,0v2.25h-.51V27.43l.48,0,1.18,1.66c.45-.55.76-1.12,1.17-1.64h.45Z" transform="translate(-57.53 -4.13)"/><path class="cls-5" d="M111.87,28.35v2.37h-.5v-3.3h.48L113,29.05c.45-.52.75-1.11,1.16-1.63h.45v3.3h-.49c0-.73,0-1.48,0-2.22l-.11,0c-.13.18-.26.36-.38.55l-.3.43c-.23.33-.4.33-.63,0l-.59-.82Z" transform="translate(-57.53 -4.13)"/><path class="cls-6" d="M69.61,30.83a1.62,1.62,0,0,1-1.69-1.72,1.7,1.7,0,0,1,1.74-1.79,1.64,1.64,0,0,1,1.69,1.73A1.69,1.69,0,0,1,69.61,30.83Zm1.17-1.74A1.24,1.24,0,0,0,70,27.84a1,1,0,0,0-1.17.26,1.39,1.39,0,0,0-.28,1.47,1,1,0,0,0,.93.81A1.15,1.15,0,0,0,70.78,29.09Z" transform="translate(-57.53 -4.13)"/><path class="cls-7" d="M101.86,27.43h2.44v.42h-1.91v1H104v.44h-1.64v1h2v.42h-2.49Z" transform="translate(-57.53 -4.13)"/><path class="cls-8" d="M98,30.74V27.41a6.36,6.36,0,0,1,1.9.11A1.56,1.56,0,0,1,101,29.31a1.62,1.62,0,0,1-1.49,1.42C99,30.76,98.54,30.74,98,30.74Zm.54-2.91V30.3h.76a1.11,1.11,0,0,0,1.12-1.07,1.16,1.16,0,0,0-.88-1.32A9.66,9.66,0,0,0,98.56,27.83Z" transform="translate(-57.53 -4.13)"/><path class="cls-5" d="M122.08,27.43h2.45l0,.41h-1.93v1h1.63v.45h-1.64v1h2l0,.44h-2.53Z" transform="translate(-57.53 -4.13)"/><path class="cls-7" d="M77.07,30.33l.17-.33.14,0a2.08,2.08,0,0,0,1.28.36,1.34,1.34,0,0,0,.39-.07.43.43,0,0,0,.34-.41c0-.23-.14-.34-.34-.4l-.63-.17a5.88,5.88,0,0,1-.71-.23.82.82,0,0,1-.18-1.43,1.73,1.73,0,0,1,.54-.28,2.13,2.13,0,0,1,1.34.08c.4.13.4.14.36.6a5.88,5.88,0,0,0-.91-.26,2,2,0,0,0-.77.06.43.43,0,0,0-.35.4c0,.24.16.34.35.4s.5.13.76.21a5.6,5.6,0,0,1,.54.17.76.76,0,0,1,.53.69.88.88,0,0,1-.45.88,1.84,1.84,0,0,1-1.32.18A2.11,2.11,0,0,1,77.07,30.33Z" transform="translate(-57.53 -4.13)"/><path class="cls-7" d="M108.83,28.07a7.12,7.12,0,0,0-1-.28,2.07,2.07,0,0,0-.77.12.39.39,0,0,0-.27.41.38.38,0,0,0,.31.33l.8.23a5.6,5.6,0,0,1,.54.17.76.76,0,0,1,.53.69.88.88,0,0,1-.45.88,1.84,1.84,0,0,1-1.32.18,2,2,0,0,1-1.06-.46l.15-.34a.42.42,0,0,1,.14,0,2.17,2.17,0,0,0,1.29.35,1.22,1.22,0,0,0,.38-.07.43.43,0,0,0,.34-.41c0-.23-.14-.34-.34-.4l-.63-.17a5.21,5.21,0,0,1-.7-.23.82.82,0,0,1-.15-1.46,1.53,1.53,0,0,1,1.11-.31,3,3,0,0,1,.73.14C108.87,27.6,108.87,27.61,108.83,28.07Z" transform="translate(-57.53 -4.13)"/><path class="cls-9" d="M74.81,27.69v.47c-1-.48-1.63-.46-2,.05a1.49,1.49,0,0,0,0,1.72,1.33,1.33,0,0,0,1.75.24V29.09H75v1.33a2,2,0,0,1-2.61-.09,2,2,0,0,1,0-2.44A1.89,1.89,0,0,1,74.81,27.69Z" transform="translate(-57.53 -4.13)"/><path class="cls-7" d="M94.88,29.93l-.35.81H94l1.44-3.31H96l1.44,3.3-.54,0-.38-.83Zm1.4-.46c-.18-.49-.37-.93-.6-1.43l-.6,1.43Z" transform="translate(-57.53 -4.13)"/><path class="cls-8" d="M116.19,29.58v1.14h-.53V27.41a8.8,8.8,0,0,1,2,.09.92.92,0,0,1,.73.88,1,1,0,0,1-.62,1.05,2.83,2.83,0,0,1-.76.14A7.2,7.2,0,0,1,116.19,29.58Zm0-.42a10.23,10.23,0,0,0,1.16-.08.54.54,0,0,0,.47-.6.56.56,0,0,0-.48-.59,4.92,4.92,0,0,0-1.15,0Z" transform="translate(-57.53 -4.13)"/><path class="cls-10" d="M87.87,27.68v.43c-1.07-.43-1.62-.39-2,.14A1.5,1.5,0,0,0,86,30c.44.48,1,.46,1.93-.09l.21.29a1.81,1.81,0,0,1-2.5.23,2,2,0,0,1-.14-2.53A1.81,1.81,0,0,1,87.87,27.68Z" transform="translate(-57.53 -4.13)"/><path class="cls-8" d="M82,30.73h-.54V27.85H80.23v-.42h2.91v.43H82Z" transform="translate(-57.53 -4.13)"/><path class="cls-6" d="M119.59,30.3h1.83l0,.42h-2.37V27.43l.5,0Z" transform="translate(-57.53 -4.13)"/><path class="cls-6" d="M67.67,30.3v.43H65.33V27.42h.51V30.3Z" transform="translate(-57.53 -4.13)"/><path class="cls-6" d="M83.77,27.42h.49v3.31h-.49Z" transform="translate(-57.53 -4.13)"/><path class="cls-6" d="M109.79,30.73v-3.3h.49v3.3Z" transform="translate(-57.53 -4.13)"/><path class="cls-6" d="M76.29,30.73h-.48V27.42h.48Z" transform="translate(-57.53 -4.13)"/><path class="cls-11" d="M111.28,14.15c.24.29.44.5.6.74a1.05,1.05,0,0,1,.16.49.56.56,0,0,1-.8.56.93.93,0,0,1-.55-.53.58.58,0,0,1,0-.45A7.77,7.77,0,0,1,111.28,14.15Z" transform="translate(-57.53 -4.13)"/><path class="cls-12" d="M132.22,23a2,2,0,0,1-1.12-1,3.21,3.21,0,0,0-3.81-1.68,3.06,3.06,0,0,0-2,1.69,1.81,1.81,0,0,1-1,1,1.5,1.5,0,0,1-.47-1.08c0-2.62,0-5.24,0-7.86,0-.53.11-.67.65-.73a3.17,3.17,0,0,1,.87,0c.47.06.59.21.6.69v2.72c0,.1,0,.21,0,.31a.93.93,0,0,0,1,1h.22l4.69.07H132c.44,0,.64.23.64.67,0,1.08,0,2.17,0,3.25A1.79,1.79,0,0,1,132.22,23Z" transform="translate(-57.53 -4.13)"/><path class="cls-12" d="M130,16.33c-.56,0-1.11,0-1.67,0s-.65-.15-.66-.66,0-1,0-1.53a.8.8,0,0,1,.73-.8,9.83,9.83,0,0,1,2.1,0,1.29,1.29,0,0,1,1,.77c.29.49.5,1,.75,1.54a1.18,1.18,0,0,1,.07.2.31.31,0,0,1-.23.41,1.74,1.74,0,0,1-.39.05Z" transform="translate(-57.53 -4.13)"/><path class="cls-13" d="M126.7,23.4a1.53,1.53,0,0,1,3.06,0,1.45,1.45,0,0,1-1.57,1.56A1.36,1.36,0,0,1,126.7,23.4Z" transform="translate(-57.53 -4.13)"/><path class="cls-13" d="M113.69,24.87a1.36,1.36,0,0,1-1.47-1.47,1.42,1.42,0,0,1,1.49-1.53,1.55,1.55,0,0,1,1.59,1.52A1.49,1.49,0,0,1,113.69,24.87Z" transform="translate(-57.53 -4.13)"/><path class="cls-14" d="M70.78,29.09a1.15,1.15,0,0,1-1.29,1.29,1,1,0,0,1-.93-.81,1.39,1.39,0,0,1,.28-1.47A1,1,0,0,1,70,27.84,1.24,1.24,0,0,1,70.78,29.09Z" transform="translate(-57.53 -4.13)"/><path class="cls-15" d="M98.56,27.83a9.66,9.66,0,0,1,1,.08,1.16,1.16,0,0,1,.88,1.32,1.11,1.11,0,0,1-1.12,1.07h-.76Z" transform="translate(-57.53 -4.13)"/><path class="cls-16" d="M96.28,29.47h-1.2l.6-1.43C95.91,28.54,96.1,29,96.28,29.47Z" transform="translate(-57.53 -4.13)"/><path class="cls-17" d="M116.2,29.16V27.85a4.92,4.92,0,0,1,1.15,0,.56.56,0,0,1,.48.59.54.54,0,0,1-.47.6A10.23,10.23,0,0,1,116.2,29.16Z" transform="translate(-57.53 -4.13)"/></svg>